<svg width="420" height="112" viewBox="0 0 420 112" fill="none" xmlns="http://www.w3.org/2000/svg" role="img" aria-labelledby="title desc">
  <title id="title">SuperHRD logo</title>
  <desc id="desc">Horizontal SuperHRD wordmark with a clean shield, document, check, and AI sparkle mark.</desc>
  <rect width="420" height="112" rx="20" fill="white"/>
  <g transform="translate(20 12)">
    <rect width="88" height="88" rx="20" fill="#071A33"/>
    <path d="M44 12L68 21.2V40.1C68 55.8 58.2 69.5 44 74.7C29.8 69.5 20 55.8 20 40.1V21.2L44 12Z" fill="#0EA5E9"/>
    <path d="M44 17.7L62.5 24.8V40.3C62.5 52.7 55.3 63.8 44 68.7C32.7 63.8 25.5 52.7 25.5 40.3V24.8L44 17.7Z" fill="#F8FAFC"/>
    <path d="M34.8 26H50.6L58 33.4V57.8C58 60.6 55.7 62.9 52.9 62.9H34.8C32 62.9 29.7 60.6 29.7 57.8V31.1C29.7 28.3 32 26 34.8 26Z" fill="#DFF7FF"/>
    <path d="M50.6 26V32.5C50.6 33.5 51.4 34.3 52.4 34.3H58" fill="#BAE6FD"/>
    <path d="M36.6 40.8H51" stroke="#0F2A4A" stroke-width="3.7" stroke-linecap="round"/>
    <path d="M36.6 48.2H46.8" stroke="#0F2A4A" stroke-width="3.7" stroke-linecap="round"/>
    <path d="M36.2 55.6L40.9 60.2L51.9 49" stroke="#10B981" stroke-width="4.8" stroke-linecap="round" stroke-linejoin="round"/>
    <path d="M62.5 15.7L64.4 21.2L69.9 23.1L64.4 25L62.5 30.5L60.6 25L55.1 23.1L60.6 21.2L62.5 15.7Z" fill="#34D399"/>
    <path d="M22.7 13.8L24 17.6L27.8 18.9L24 20.2L22.7 24L21.4 20.2L17.6 18.9L21.4 17.6L22.7 13.8Z" fill="#67E8F9"/>
  </g>
  <g transform="translate(130 28)">
    <text x="0" y="36" fill="#071A33" font-family="Inter, ui-sans-serif, system-ui, -apple-system, BlinkMacSystemFont, 'Segoe UI', sans-serif" font-size="38" font-weight="800" letter-spacing="0">SuperHRD</text>
    <text x="3" y="60" fill="#64748B" font-family="Inter, ui-sans-serif, system-ui, -apple-system, BlinkMacSystemFont, 'Segoe UI', sans-serif" font-size="13" font-weight="600" letter-spacing="1.2">AI CV SCREENING</text>
  </g>
</svg>
