<svg width="96" height="96" viewBox="0 0 96 96" fill="none" xmlns="http://www.w3.org/2000/svg" role="img" aria-labelledby="title desc">
  <title id="title">SuperHRD logo mark</title>
  <desc id="desc">A clean shield, document, check, and AI sparkle mark for SuperHRD.</desc>
  <rect width="96" height="96" rx="22" fill="#071A33"/>
  <path d="M48 14L74 24V44.5C74 61.5 63.4 76.4 48 82C32.6 76.4 22 61.5 22 44.5V24L48 14Z" fill="#0EA5E9"/>
  <path d="M48 20.2L68 27.9V44.7C68 58.1 60.2 70.1 48 75.4C35.8 70.1 28 58.1 28 44.7V27.9L48 20.2Z" fill="#F8FAFC"/>
  <path d="M38 29H55L63 37V63.5C63 66.5 60.5 69 57.5 69H38C35 69 32.5 66.5 32.5 63.5V34.5C32.5 31.5 35 29 38 29Z" fill="#DFF7FF"/>
  <path d="M55 29V36C55 37.1 55.9 38 57 38H63" fill="#BAE6FD"/>
  <path d="M40 45H55.5" stroke="#0F2A4A" stroke-width="4" stroke-linecap="round"/>
  <path d="M40 53H51" stroke="#0F2A4A" stroke-width="4" stroke-linecap="round"/>
  <path d="M39.5 61L44.6 66L56.5 53.8" stroke="#10B981" stroke-width="5.2" stroke-linecap="round" stroke-linejoin="round"/>
  <path d="M68 18L70.1 23.9L76 26L70.1 28.1L68 34L65.9 28.1L60 26L65.9 23.9L68 18Z" fill="#34D399"/>
  <path d="M25 16L26.4 20.1L30.5 21.5L26.4 22.9L25 27L23.6 22.9L19.5 21.5L23.6 20.1L25 16Z" fill="#67E8F9"/>
</svg>
